<svg width="69" height="59" viewBox="0 0 69 59" fill="none" xmlns="http://www.w3.org/2000/svg">
<g clip-path="url(#clip0_9_41)">
<path d="M27.4437 0.474145L26.9962 0.969852L27.2442 1.3578C28.4894 3.35679 28.8237 5.91615 28.1067 7.93131C27.7994 8.7988 27.5029 9.28912 26.3547 10.884C25.4276 12.1664 24.7699 13.3356 24.4357 14.3055C24.2416 14.8712 24.2362 14.9305 24.2308 15.5986C24.2308 16.2021 24.247 16.3422 24.3494 16.6008C24.5381 17.0588 24.9855 17.5491 25.8372 18.228C26.2631 18.5729 26.6997 18.95 26.8022 19.0686L26.9908 19.2949L27.4383 18.8046L27.8803 18.3196L27.6323 18.0448C27.3035 17.6784 26.9531 17.1342 26.7537 16.6762C26.0151 14.979 26.3763 13.0931 27.821 11.0995C29.3843 8.94967 30.1228 7.46255 30.3815 5.95926C30.4894 5.29652 30.4624 4.14346 30.3169 3.61004C30.0312 2.53241 29.4975 1.68109 28.3493 0.463368L27.8965 -0.016175L27.4437 0.474145Z" fill="white"/>
<path d="M32.403 0.468758C32.1659 0.727388 31.9664 0.959078 31.9664 0.98063C31.9664 1.00218 32.0365 1.12611 32.1227 1.25542C32.3491 1.5841 32.7858 2.48392 32.9637 2.96346C33.3841 4.12191 33.5351 5.65214 33.341 6.79442C33.12 8.11451 32.7373 8.90657 31.4705 10.6577C29.3897 13.5242 28.8291 15.6794 29.7886 17.1235C30.0581 17.533 30.2953 17.7808 30.9961 18.3897C31.3357 18.686 31.6915 19.0147 31.7777 19.1117L31.9395 19.2949L32.3869 18.8099L32.8397 18.3196L32.5486 18.0017C31.7238 17.0857 31.2441 15.7333 31.3411 14.5803C31.4543 13.2063 31.837 12.3873 33.2709 10.3937C34.9528 8.05524 35.6482 6.37415 35.5619 4.82237C35.508 3.88483 35.2547 3.19515 34.6078 2.2199C34.2951 1.75652 33.1955 0.366384 32.8559 0.0107673C32.8505 -8.97981e-06 32.6456 0.210128 32.403 0.468758Z" fill="white"/>
<path d="M0.377345 23.4599C0.377345 24.1442 0.485157 25.7391 0.59836 26.7467C1.52555 35.0067 5.50383 42.4423 11.7246 47.5287C12.6302 48.2722 14.0318 49.2583 14.932 49.7917L15.3363 50.0288L14.932 50.0665C14.711 50.088 13.924 50.1527 13.1801 50.2173C5.35289 50.8747 0.25336 52.0763 0.0215635 53.3209C-0.107812 54.0214 1.14281 54.8511 3.6225 55.7025C7.7625 57.1303 14.6463 58.2942 21.6703 58.7575C24.4411 58.9353 25.5623 58.9677 29.0285 58.9677C32.4785 58.9677 33.4758 58.9407 36.2789 58.7575C43.2921 58.2995 50.0412 57.1573 54.2836 55.7186C57.4371 54.6518 58.6069 53.6226 57.588 52.8144C56.1164 51.6506 50.9306 50.67 43.0711 50.0665L42.559 50.0288L43.0441 49.7378C45.2489 48.4069 47.583 46.4942 49.3512 44.5652L49.7177 44.1665L50.2083 44.2796C51.308 44.5437 52.5909 44.6945 54.3105 44.7753C55.7768 44.84 57.9438 44.84 58.5961 44.7753C62.4234 44.3766 65.5823 42.0058 67.4313 38.1426C68.1644 36.6069 68.6226 35.0067 68.8706 33.11C69.0054 32.1079 69.0054 29.9849 68.876 29.1713C68.655 27.7758 68.2345 26.6174 67.5984 25.669C67.248 25.1518 66.3963 24.2843 65.9543 24.0041C65.4368 23.6754 64.6929 23.3414 64.17 23.2121C63.7172 23.0935 63.6148 23.0881 62.1808 23.1097C61.3507 23.1205 60.3103 23.1258 59.8629 23.1205C59.4209 23.1151 45.8526 23.0989 29.7185 23.0881L0.377345 23.0612V23.4599ZM63.3506 25.3026C65.798 25.8145 66.4341 26.4826 66.9731 29.1174C67.4367 31.3535 67.1456 33.6974 66.1322 35.9927C64.5581 39.5542 61.6472 42.0974 58.5691 42.5931C57.7012 42.7332 55.7714 42.6794 53.9601 42.4531C53.1516 42.3561 51.4751 42.0921 51.4427 42.0597C51.4373 42.0543 51.6422 41.7526 51.9009 41.3916C53.3402 39.3818 54.6501 36.9141 55.5396 34.511C56.4506 32.054 57.0436 29.4946 57.3616 26.6712C57.394 26.3587 57.4533 26.0893 57.4856 26.0678C57.518 26.0462 57.6204 26.0247 57.7066 26.0247C57.7983 26.0247 58.2187 25.9007 58.65 25.7499C59.6203 25.4104 59.9006 25.3404 60.7793 25.2488C61.9383 25.1302 62.5959 25.141 63.3506 25.3026Z" fill="white"/>
</g>
<defs>
<clipPath id="clip0_9_41">
<rect width="69" height="59" fill="white"/>
</clipPath>
</defs>
</svg>
